<svg width="260" height="94" viewBox="0 0 260 94" fill="none" xmlns="http://www.w3.org/2000/svg">
<g filter="url(#filter0_d)">
<path d="M46.1406 32.4375H47.3594C50.9844 32.4375 54.4844 33.9375 57.8594 36.9375C61.2344 40.2656 62.9219 44.4219 62.9219 49.4062V50.4375C62.9219 52.2812 62.0156 53.5625 60.2031 54.2812C59.8281 54.4688 59.1406 54.5625 58.1406 54.5625C46.0312 54.5625 39.9688 54.625 39.9531 54.75C40.4062 55.9219 41.0312 56.9219 41.8281 57.75C43.0156 59.375 44.9531 60.1875 47.6406 60.1875C50.5469 60.1875 52.8906 59.25 54.6719 57.375C55.5469 56.875 56.3906 56.625 57.2031 56.625H57.2969C59.2812 56.625 60.6875 57.7188 61.5156 59.9062L61.6094 60.75V61.125C61.6094 63.125 60.0469 64.9688 56.9219 66.6562C54.0781 68.2188 51.3594 69 48.7656 69C44.5938 69 41.5625 68.4062 39.6719 67.2188C36.0625 65.375 33.3438 62.0625 31.5156 57.2812C30.7656 55.1406 30.3906 52.9219 30.3906 50.625V49.3125C30.3906 42.5938 33.3906 37.5312 39.3906 34.125C41.7344 33 43.9844 32.4375 46.1406 32.4375ZM39.5781 46.5H53.7344C53.0781 44.5781 51.8281 43.0781 49.9844 42C48.875 41.5 47.8125 41.25 46.7969 41.25H46.5156C43.4688 41.25 41.1875 42.9062 39.6719 46.2188L39.5781 46.5ZM70.6094 33.0938H71.2656C73.125 33.0938 74.4688 34.1562 75.2969 36.2812L75.4844 37.875V64.2188C75.4844 66.5 74.4219 68.0312 72.2969 68.8125L71.0781 69C69.0938 69 67.6875 67.9375 66.8594 65.8125L66.6719 64.5V37.5C66.6719 35.4062 67.7969 33.9688 70.0469 33.1875L70.6094 33.0938ZM71.0781 23.0859C71.8125 23.0859 72.5312 23.2812 73.2344 23.6719C73.9375 24.0469 74.4844 24.5859 74.875 25.2891C75.2812 25.9922 75.4844 26.7266 75.4844 27.4922C75.4844 28.2578 75.2891 28.9922 74.8984 29.6953C74.5078 30.3828 73.9609 30.9219 73.2578 31.3125C72.5703 31.7031 71.8438 31.8984 71.0781 31.8984C70.3125 31.8984 69.5781 31.7031 68.875 31.3125C68.1875 30.9219 67.6484 30.3828 67.2578 29.6953C66.8672 28.9922 66.6719 28.2578 66.6719 27.4922C66.6719 26.7266 66.8672 25.9922 67.2578 25.2891C67.6484 24.5859 68.1953 24.0469 68.8984 23.6719C69.6016 23.2812 70.3281 23.0859 71.0781 23.0859Z" fill="white"/>
<path d="M91.7969 32.4375C96 32.4375 99.3438 33.6875 101.828 36.1875C102.328 37.0781 102.578 37.8594 102.578 38.5312V38.8125C102.578 40.8125 101.484 42.2188 99.2969 43.0312L98.4531 43.125H97.9844C97.125 43.125 96 42.6562 94.6094 41.7188C93.625 41.4688 92.8125 41.3438 92.1719 41.3438H91.5156C89.4531 41.6719 88.4219 42.3594 88.4219 43.4062V43.5C88.4219 44.6406 90.3281 45.6094 94.1406 46.4062C96.9219 47.0469 99.2969 48.2969 101.266 50.1562C103.141 52.3906 104.078 54.8594 104.078 57.5625C104.078 61.5938 102.109 64.875 98.1719 67.4062C96.1094 68.5312 93.9531 69.0938 91.7031 69.0938C86.2656 69.0938 82.2969 67.5938 79.7969 64.5938C79.4219 63.7656 79.2344 62.9531 79.2344 62.1562C79.2344 60.2031 80.3906 58.8281 82.7031 58.0312L83.6406 57.9375C84.8125 57.9375 85.9688 58.4375 87.1094 59.4375C88.7031 60 90.1406 60.2812 91.4219 60.2812C93.6406 60.2812 94.9219 59.375 95.2656 57.5625C95.2656 56.2812 94.2031 55.4375 92.0781 55.0312C89 54.2812 86.5938 53.4375 84.8594 52.5C81.3594 50.0625 79.6094 47.0938 79.6094 43.5938V43.3125C79.6094 39.3594 81.7031 36.2031 85.8906 33.8438C88 32.9062 89.9688 32.4375 91.7969 32.4375ZM116.734 34.0078C119.656 32.8984 122.203 32.3438 124.375 32.3438C129.75 32.3438 133.5 34.75 135.625 39.5625C136.281 41.5781 136.609 43.3281 136.609 44.8125V64.7812C136.609 66.7188 135.453 68.0938 133.141 68.9062L132.203 69C130.359 69 128.984 68 128.078 66C127.891 65.4375 127.797 64.75 127.797 63.9375V45.2812C127.797 43.3281 126.828 42.0469 124.891 41.4375L123.578 41.25H123.016C120.625 41.25 118.656 42.2188 117.109 44.1562C116.797 44.1562 116.641 45.2188 116.641 47.3438V65.0625C116.641 66.1719 115.984 67.2344 114.672 68.25C113.859 68.75 113.047 69 112.234 69C110.453 69 109.109 68.0625 108.203 66.1875C107.953 65.7344 107.828 64.8281 107.828 63.4688V28.125C107.828 25.4062 108.703 23.6875 110.453 22.9688C111.031 22.7188 111.562 22.5938 112.047 22.5938H112.328C114.266 22.5938 115.641 23.5938 116.453 25.5938C116.641 26.1406 116.734 26.9844 116.734 28.125V34.0078ZM157.703 32.4375H159.297C163.359 32.4375 167.266 34.0312 171.016 37.2188C174.953 41.1719 176.922 45.6406 176.922 50.625C176.922 56.3281 174.547 61.1719 169.797 65.1562C166.359 67.7188 162.609 69 158.547 69C153.062 69 148.344 66.7188 144.391 62.1562C141.703 58.75 140.359 54.9375 140.359 50.7188C140.359 44.3125 143.203 39.125 148.891 35.1562C152.094 33.3438 155.031 32.4375 157.703 32.4375ZM149.172 50.5312V50.7188C149.172 54.5625 151.109 57.4688 154.984 59.4375C155.875 59.8125 157.062 60.0625 158.547 60.1875C162.047 60.1875 164.828 58.5312 166.891 55.2188C167.641 53.8281 168.016 52.4531 168.016 51.0938V50.25C168.016 47.2656 166.547 44.7344 163.609 42.6562C162.109 41.7188 160.516 41.25 158.828 41.25H158.266C154.922 41.25 152.203 43 150.109 46.5C149.484 48 149.172 49.3438 149.172 50.5312ZM205.141 32.4375C207.328 32.4375 208.828 33.5938 209.641 35.9062L215.172 55.0312C215.344 54.9375 215.844 53.3125 216.672 50.1562L221.078 35.1562C222.031 33.4062 223.344 32.5312 225.016 32.5312H225.297C227.344 32.5312 228.75 33.6875 229.516 36L229.609 36.9375C229.609 37.5781 227.078 46.3594 222.016 63.2812C221.891 64.375 221.109 65.7188 219.672 67.3125C218.281 68.5 216.781 69.0938 215.172 69.0938C212.375 69.0938 210.188 67.375 208.609 63.9375L205.141 52.0312H205.047C202.859 60.0469 201.516 64.4531 201.016 65.25C199.453 67.8125 197.422 69.0938 194.922 69.0938C193.188 69.0938 191.594 68.3438 190.141 66.8438C189.062 65.8125 188.062 63.4688 187.141 59.8125L180.766 37.5938L180.672 36.75C180.672 34.8438 181.766 33.4688 183.953 32.625L184.891 32.5312H185.359C187.062 32.5312 188.375 33.5312 189.297 35.5312L194.922 55.0312C195.078 55.0312 195.516 53.5938 196.234 50.7188L200.922 34.9688C201.906 33.2812 203.312 32.4375 205.141 32.4375Z" fill="#64C66E"/>
</g>
<defs>
<filter id="filter0_d" x="-4" y="0" width="268" height="102" filterUnits="userSpaceOnUse" color-interpolation-filters="sRGB">
<feFlood flood-opacity="0" result="BackgroundImageFix"/>
<feColorMatrix in="SourceAlpha" type="matrix" values="0 0 0 0 0 0 0 0 0 0 0 0 0 0 0 0 0 0 127 0"/>
<feOffset dy="4"/>
<feGaussianBlur stdDeviation="2"/>
<feColorMatrix type="matrix" values="0 0 0 0 0 0 0 0 0 0 0 0 0 0 0 0 0 0 0.25 0"/>
<feBlend mode="normal" in2="BackgroundImageFix" result="effect1_dropShadow"/>
<feBlend mode="normal" in="SourceGraphic" in2="effect1_dropShadow" result="shape"/>
</filter>
</defs>
</svg>
